<mxfile host="app.diagrams.net" agent="Mozilla/5.0 (Windows NT 10.0; Win64; x64) AppleWebKit/537.36 (KHTML, like Gecko) Chrome/128.0.0.0 Safari/537.36" version="24.7.7">
  <diagram name="Page-1" id="58cdce13-f638-feb5-8d6f-7d28b1aa9fa0">
    <mxGraphModel dx="1301" dy="532" grid="1" gridSize="10" guides="1" tooltips="1" connect="1" arrows="1" fold="1" page="1" pageScale="1" pageWidth="1100" pageHeight="850" background="none" math="0" shadow="0">
      <root>
        <mxCell id="0" />
        <mxCell id="1" parent="0" />
        <mxCell id="F6sMRfChTS6cOjXqgvfc-8" style="edgeStyle=orthogonalEdgeStyle;rounded=0;orthogonalLoop=1;jettySize=auto;html=1;entryX=0.5;entryY=1;entryDx=0;entryDy=0;" edge="1" parent="1" source="382b91b5511bd0f7-1" target="F6sMRfChTS6cOjXqgvfc-1">
          <mxGeometry relative="1" as="geometry">
            <Array as="points">
              <mxPoint x="70" y="580" />
              <mxPoint x="70" y="565" />
            </Array>
          </mxGeometry>
        </mxCell>
        <mxCell id="F6sMRfChTS6cOjXqgvfc-10" value="" style="edgeStyle=orthogonalEdgeStyle;rounded=0;orthogonalLoop=1;jettySize=auto;html=1;" edge="1" parent="1" source="382b91b5511bd0f7-1" target="F6sMRfChTS6cOjXqgvfc-9">
          <mxGeometry relative="1" as="geometry">
            <Array as="points">
              <mxPoint x="30" y="600" />
            </Array>
          </mxGeometry>
        </mxCell>
        <mxCell id="F6sMRfChTS6cOjXqgvfc-31" style="edgeStyle=orthogonalEdgeStyle;rounded=0;orthogonalLoop=1;jettySize=auto;html=1;" edge="1" parent="1" source="382b91b5511bd0f7-1" target="F6sMRfChTS6cOjXqgvfc-30">
          <mxGeometry relative="1" as="geometry">
            <Array as="points">
              <mxPoint x="20" y="680" />
            </Array>
          </mxGeometry>
        </mxCell>
        <mxCell id="F6sMRfChTS6cOjXqgvfc-82" value="" style="edgeStyle=orthogonalEdgeStyle;rounded=0;orthogonalLoop=1;jettySize=auto;html=1;entryX=0.5;entryY=1;entryDx=0;entryDy=0;exitX=0.121;exitY=0.259;exitDx=0;exitDy=0;exitPerimeter=0;" edge="1" parent="1" source="382b91b5511bd0f7-1" target="F6sMRfChTS6cOjXqgvfc-81">
          <mxGeometry relative="1" as="geometry">
            <mxPoint x="39.999999999999886" y="584.999998197945" as="sourcePoint" />
            <mxPoint x="61.19333471256448" y="534.1368955628699" as="targetPoint" />
            <Array as="points">
              <mxPoint x="32" y="525" />
            </Array>
          </mxGeometry>
        </mxCell>
        <mxCell id="F6sMRfChTS6cOjXqgvfc-106" style="edgeStyle=orthogonalEdgeStyle;rounded=0;orthogonalLoop=1;jettySize=auto;html=1;exitX=0;exitY=0;exitDx=0;exitDy=0;entryX=0.5;entryY=1;entryDx=0;entryDy=0;" edge="1" parent="1" source="382b91b5511bd0f7-1" target="F6sMRfChTS6cOjXqgvfc-95">
          <mxGeometry relative="1" as="geometry" />
        </mxCell>
        <mxCell id="F6sMRfChTS6cOjXqgvfc-107" style="edgeStyle=orthogonalEdgeStyle;rounded=0;orthogonalLoop=1;jettySize=auto;html=1;exitX=0;exitY=0.5;exitDx=0;exitDy=0;entryX=0.5;entryY=1;entryDx=0;entryDy=0;" edge="1" parent="1" source="382b91b5511bd0f7-1" target="F6sMRfChTS6cOjXqgvfc-101">
          <mxGeometry relative="1" as="geometry" />
        </mxCell>
        <mxCell id="F6sMRfChTS6cOjXqgvfc-148" style="edgeStyle=orthogonalEdgeStyle;rounded=0;orthogonalLoop=1;jettySize=auto;html=1;exitX=0.128;exitY=0.636;exitDx=0;exitDy=0;entryX=0.5;entryY=1;entryDx=0;entryDy=0;exitPerimeter=0;" edge="1" parent="1" source="382b91b5511bd0f7-1" target="F6sMRfChTS6cOjXqgvfc-147">
          <mxGeometry relative="1" as="geometry">
            <Array as="points">
              <mxPoint x="21" y="440" />
            </Array>
          </mxGeometry>
        </mxCell>
        <mxCell id="382b91b5511bd0f7-1" value="" style="ellipse;html=1;shape=startState;fillColor=#000000;strokeColor=#ff0000;rounded=1;shadow=0;comic=0;labelBackgroundColor=none;fontFamily=Verdana;fontSize=12;fontColor=#000000;align=center;direction=south;" parent="1" vertex="1">
          <mxGeometry x="10" y="565" width="30" height="30" as="geometry" />
        </mxCell>
        <mxCell id="F6sMRfChTS6cOjXqgvfc-3" value=":" style="edgeStyle=orthogonalEdgeStyle;rounded=0;orthogonalLoop=1;jettySize=auto;html=1;" edge="1" parent="1" source="F6sMRfChTS6cOjXqgvfc-1" target="F6sMRfChTS6cOjXqgvfc-2">
          <mxGeometry relative="1" as="geometry" />
        </mxCell>
        <mxCell id="F6sMRfChTS6cOjXqgvfc-1" value="" style="ellipse;html=1;shape=startState;fillColor=#000000;strokeColor=#ff0000;rounded=1;shadow=0;comic=0;labelBackgroundColor=none;fontFamily=Verdana;fontSize=12;fontColor=#000000;align=center;direction=south;" vertex="1" parent="1">
          <mxGeometry x="80" y="550" width="30" height="30" as="geometry" />
        </mxCell>
        <mxCell id="F6sMRfChTS6cOjXqgvfc-5" value="=" style="edgeStyle=orthogonalEdgeStyle;rounded=0;orthogonalLoop=1;jettySize=auto;html=1;exitX=0.5;exitY=0;exitDx=0;exitDy=0;entryX=0.5;entryY=1;entryDx=0;entryDy=0;" edge="1" parent="1" source="F6sMRfChTS6cOjXqgvfc-2" target="F6sMRfChTS6cOjXqgvfc-4">
          <mxGeometry relative="1" as="geometry">
            <mxPoint as="offset" />
          </mxGeometry>
        </mxCell>
        <mxCell id="F6sMRfChTS6cOjXqgvfc-2" value="" style="ellipse;html=1;shape=startState;fillColor=#000000;strokeColor=#ff0000;rounded=1;shadow=0;comic=0;labelBackgroundColor=none;fontFamily=Verdana;fontSize=12;fontColor=#000000;align=center;direction=south;" vertex="1" parent="1">
          <mxGeometry x="140" y="550" width="30" height="30" as="geometry" />
        </mxCell>
        <mxCell id="F6sMRfChTS6cOjXqgvfc-7" style="edgeStyle=orthogonalEdgeStyle;rounded=0;orthogonalLoop=1;jettySize=auto;html=1;" edge="1" parent="1" source="F6sMRfChTS6cOjXqgvfc-4" target="F6sMRfChTS6cOjXqgvfc-18">
          <mxGeometry relative="1" as="geometry">
            <mxPoint x="560.0000000000055" y="540" as="targetPoint" />
          </mxGeometry>
        </mxCell>
        <mxCell id="F6sMRfChTS6cOjXqgvfc-4" value="" style="ellipse;html=1;shape=startState;fillColor=#000000;strokeColor=#ff0000;rounded=1;shadow=0;comic=0;labelBackgroundColor=none;fontFamily=Verdana;fontSize=12;fontColor=#000000;align=center;direction=south;" vertex="1" parent="1">
          <mxGeometry x="190" y="550" width="30" height="30" as="geometry" />
        </mxCell>
        <mxCell id="F6sMRfChTS6cOjXqgvfc-12" value="" style="edgeStyle=orthogonalEdgeStyle;rounded=0;orthogonalLoop=1;jettySize=auto;html=1;" edge="1" parent="1" source="F6sMRfChTS6cOjXqgvfc-9" target="F6sMRfChTS6cOjXqgvfc-11">
          <mxGeometry relative="1" as="geometry" />
        </mxCell>
        <mxCell id="F6sMRfChTS6cOjXqgvfc-13" value="," style="edgeLabel;html=1;align=center;verticalAlign=middle;resizable=0;points=[];" vertex="1" connectable="0" parent="F6sMRfChTS6cOjXqgvfc-12">
          <mxGeometry x="-0.1321" y="-3" relative="1" as="geometry">
            <mxPoint x="-17" as="offset" />
          </mxGeometry>
        </mxCell>
        <mxCell id="F6sMRfChTS6cOjXqgvfc-24" value="" style="edgeStyle=orthogonalEdgeStyle;rounded=0;orthogonalLoop=1;jettySize=auto;html=1;" edge="1" parent="1" source="F6sMRfChTS6cOjXqgvfc-9" target="F6sMRfChTS6cOjXqgvfc-23">
          <mxGeometry relative="1" as="geometry">
            <Array as="points">
              <mxPoint x="135" y="650" />
            </Array>
          </mxGeometry>
        </mxCell>
        <mxCell id="F6sMRfChTS6cOjXqgvfc-25" value=";" style="edgeLabel;html=1;align=center;verticalAlign=middle;resizable=0;points=[];" vertex="1" connectable="0" parent="F6sMRfChTS6cOjXqgvfc-24">
          <mxGeometry x="-0.0393" y="1" relative="1" as="geometry">
            <mxPoint as="offset" />
          </mxGeometry>
        </mxCell>
        <mxCell id="F6sMRfChTS6cOjXqgvfc-9" value="" style="ellipse;html=1;shape=startState;fillColor=#000000;strokeColor=#ff0000;rounded=1;shadow=0;comic=0;labelBackgroundColor=none;fontFamily=Verdana;fontSize=12;fontColor=#000000;align=center;direction=south;" vertex="1" parent="1">
          <mxGeometry x="120" y="582.5" width="30" height="30" as="geometry" />
        </mxCell>
        <mxCell id="F6sMRfChTS6cOjXqgvfc-17" value="" style="edgeStyle=orthogonalEdgeStyle;rounded=0;orthogonalLoop=1;jettySize=auto;html=1;" edge="1" parent="1" source="F6sMRfChTS6cOjXqgvfc-11" target="F6sMRfChTS6cOjXqgvfc-16">
          <mxGeometry relative="1" as="geometry" />
        </mxCell>
        <mxCell id="F6sMRfChTS6cOjXqgvfc-11" value="" style="ellipse;html=1;shape=startState;fillColor=#000000;strokeColor=#ff0000;rounded=1;shadow=0;comic=0;labelBackgroundColor=none;fontFamily=Verdana;fontSize=12;fontColor=#000000;align=center;direction=south;" vertex="1" parent="1">
          <mxGeometry x="230" y="595" width="30" height="30" as="geometry" />
        </mxCell>
        <mxCell id="F6sMRfChTS6cOjXqgvfc-16" value="type_separator" style="ellipse;whiteSpace=wrap;html=1;fontFamily=Verdana;fillColor=#FF0000;strokeColor=#ff0000;fontColor=#000000;rounded=1;shadow=0;comic=0;labelBackgroundColor=none;" vertex="1" parent="1">
          <mxGeometry x="285" y="593.75" width="105" height="32.5" as="geometry" />
        </mxCell>
        <mxCell id="F6sMRfChTS6cOjXqgvfc-18" value="assign" style="ellipse;whiteSpace=wrap;html=1;fontFamily=Verdana;fillColor=#FF0000;strokeColor=#ff0000;fontColor=#000000;rounded=1;shadow=0;comic=0;labelBackgroundColor=none;" vertex="1" parent="1">
          <mxGeometry x="250" y="547.5" width="60" height="35" as="geometry" />
        </mxCell>
        <mxCell id="F6sMRfChTS6cOjXqgvfc-26" style="edgeStyle=orthogonalEdgeStyle;rounded=0;orthogonalLoop=1;jettySize=auto;html=1;" edge="1" parent="1" source="F6sMRfChTS6cOjXqgvfc-23" target="F6sMRfChTS6cOjXqgvfc-16">
          <mxGeometry relative="1" as="geometry" />
        </mxCell>
        <mxCell id="F6sMRfChTS6cOjXqgvfc-23" value="" style="ellipse;html=1;shape=startState;fillColor=#000000;strokeColor=#ff0000;rounded=1;shadow=0;comic=0;labelBackgroundColor=none;fontFamily=Verdana;fontSize=12;fontColor=#000000;align=center;direction=south;" vertex="1" parent="1">
          <mxGeometry x="230" y="635" width="30" height="30" as="geometry" />
        </mxCell>
        <mxCell id="F6sMRfChTS6cOjXqgvfc-33" value="" style="edgeStyle=orthogonalEdgeStyle;rounded=0;orthogonalLoop=1;jettySize=auto;html=1;" edge="1" parent="1" source="F6sMRfChTS6cOjXqgvfc-30" target="F6sMRfChTS6cOjXqgvfc-32">
          <mxGeometry relative="1" as="geometry" />
        </mxCell>
        <mxCell id="F6sMRfChTS6cOjXqgvfc-37" value="i" style="edgeLabel;html=1;align=center;verticalAlign=middle;resizable=0;points=[];" vertex="1" connectable="0" parent="F6sMRfChTS6cOjXqgvfc-33">
          <mxGeometry x="-0.0714" y="-1" relative="1" as="geometry">
            <mxPoint as="offset" />
          </mxGeometry>
        </mxCell>
        <mxCell id="F6sMRfChTS6cOjXqgvfc-60" style="edgeStyle=orthogonalEdgeStyle;rounded=0;orthogonalLoop=1;jettySize=auto;html=1;exitX=1;exitY=0.5;exitDx=0;exitDy=0;entryX=0.5;entryY=1;entryDx=0;entryDy=0;" edge="1" parent="1" source="F6sMRfChTS6cOjXqgvfc-30" target="F6sMRfChTS6cOjXqgvfc-59">
          <mxGeometry relative="1" as="geometry" />
        </mxCell>
        <mxCell id="F6sMRfChTS6cOjXqgvfc-61" value="c" style="edgeLabel;html=1;align=center;verticalAlign=middle;resizable=0;points=[];" vertex="1" connectable="0" parent="F6sMRfChTS6cOjXqgvfc-60">
          <mxGeometry x="0.2901" relative="1" as="geometry">
            <mxPoint x="-2" y="-65" as="offset" />
          </mxGeometry>
        </mxCell>
        <mxCell id="F6sMRfChTS6cOjXqgvfc-30" value="" style="ellipse;html=1;shape=startState;fillColor=#000000;strokeColor=#ff0000;rounded=1;shadow=0;comic=0;labelBackgroundColor=none;fontFamily=Verdana;fontSize=12;fontColor=#000000;align=center;direction=south;" vertex="1" parent="1">
          <mxGeometry x="80" y="665" width="30" height="30" as="geometry" />
        </mxCell>
        <mxCell id="F6sMRfChTS6cOjXqgvfc-35" value="" style="edgeStyle=orthogonalEdgeStyle;rounded=0;orthogonalLoop=1;jettySize=auto;html=1;" edge="1" parent="1" source="F6sMRfChTS6cOjXqgvfc-32" target="F6sMRfChTS6cOjXqgvfc-34">
          <mxGeometry relative="1" as="geometry">
            <Array as="points">
              <mxPoint x="260" y="680" />
              <mxPoint x="260" y="680" />
            </Array>
          </mxGeometry>
        </mxCell>
        <mxCell id="F6sMRfChTS6cOjXqgvfc-38" value="n" style="edgeLabel;html=1;align=center;verticalAlign=middle;resizable=0;points=[];" vertex="1" connectable="0" parent="F6sMRfChTS6cOjXqgvfc-35">
          <mxGeometry x="0.1214" relative="1" as="geometry">
            <mxPoint x="-8" as="offset" />
          </mxGeometry>
        </mxCell>
        <mxCell id="F6sMRfChTS6cOjXqgvfc-32" value="" style="ellipse;html=1;shape=startState;fillColor=#000000;strokeColor=#ff0000;rounded=1;shadow=0;comic=0;labelBackgroundColor=none;fontFamily=Verdana;fontSize=12;fontColor=#000000;align=center;direction=south;" vertex="1" parent="1">
          <mxGeometry x="150" y="665" width="30" height="30" as="geometry" />
        </mxCell>
        <mxCell id="F6sMRfChTS6cOjXqgvfc-40" value="" style="edgeStyle=orthogonalEdgeStyle;rounded=0;orthogonalLoop=1;jettySize=auto;html=1;" edge="1" parent="1" source="F6sMRfChTS6cOjXqgvfc-34" target="F6sMRfChTS6cOjXqgvfc-39">
          <mxGeometry relative="1" as="geometry" />
        </mxCell>
        <mxCell id="F6sMRfChTS6cOjXqgvfc-41" value="t" style="edgeLabel;html=1;align=center;verticalAlign=middle;resizable=0;points=[];" vertex="1" connectable="0" parent="F6sMRfChTS6cOjXqgvfc-40">
          <mxGeometry x="-0.1429" relative="1" as="geometry">
            <mxPoint as="offset" />
          </mxGeometry>
        </mxCell>
        <mxCell id="F6sMRfChTS6cOjXqgvfc-34" value="" style="ellipse;html=1;shape=startState;fillColor=#000000;strokeColor=#ff0000;rounded=1;shadow=0;comic=0;labelBackgroundColor=none;fontFamily=Verdana;fontSize=12;fontColor=#000000;align=center;direction=south;" vertex="1" parent="1">
          <mxGeometry x="230" y="665" width="30" height="30" as="geometry" />
        </mxCell>
        <mxCell id="F6sMRfChTS6cOjXqgvfc-76" value="&quot; &quot;" style="edgeStyle=orthogonalEdgeStyle;rounded=0;orthogonalLoop=1;jettySize=auto;html=1;entryX=0.049;entryY=0.276;entryDx=0;entryDy=0;entryPerimeter=0;exitX=1;exitY=0.5;exitDx=0;exitDy=0;" edge="1" parent="1" source="F6sMRfChTS6cOjXqgvfc-39" target="F6sMRfChTS6cOjXqgvfc-75">
          <mxGeometry relative="1" as="geometry">
            <Array as="points">
              <mxPoint x="315" y="700" />
              <mxPoint x="480" y="700" />
              <mxPoint x="480" y="719" />
            </Array>
          </mxGeometry>
        </mxCell>
        <mxCell id="F6sMRfChTS6cOjXqgvfc-39" value="" style="ellipse;html=1;shape=startState;fillColor=#000000;strokeColor=#ff0000;rounded=1;shadow=0;comic=0;labelBackgroundColor=none;fontFamily=Verdana;fontSize=12;fontColor=#000000;align=center;direction=south;" vertex="1" parent="1">
          <mxGeometry x="300" y="665" width="30" height="30" as="geometry" />
        </mxCell>
        <mxCell id="F6sMRfChTS6cOjXqgvfc-48" value="" style="edgeStyle=orthogonalEdgeStyle;rounded=0;orthogonalLoop=1;jettySize=auto;html=1;" edge="1" parent="1" source="F6sMRfChTS6cOjXqgvfc-45" target="F6sMRfChTS6cOjXqgvfc-47">
          <mxGeometry relative="1" as="geometry" />
        </mxCell>
        <mxCell id="F6sMRfChTS6cOjXqgvfc-49" value="l" style="edgeLabel;html=1;align=center;verticalAlign=middle;resizable=0;points=[];" vertex="1" connectable="0" parent="F6sMRfChTS6cOjXqgvfc-48">
          <mxGeometry x="-0.1071" relative="1" as="geometry">
            <mxPoint as="offset" />
          </mxGeometry>
        </mxCell>
        <mxCell id="F6sMRfChTS6cOjXqgvfc-45" value="" style="ellipse;html=1;shape=startState;fillColor=#000000;strokeColor=#ff0000;rounded=1;shadow=0;comic=0;labelBackgroundColor=none;fontFamily=Verdana;fontSize=12;fontColor=#000000;align=center;direction=south;" vertex="1" parent="1">
          <mxGeometry x="150" y="725" width="30" height="30" as="geometry" />
        </mxCell>
        <mxCell id="F6sMRfChTS6cOjXqgvfc-46" value="f" style="edgeStyle=orthogonalEdgeStyle;rounded=0;orthogonalLoop=1;jettySize=auto;html=1;exitX=1;exitY=0;exitDx=0;exitDy=0;entryX=0.357;entryY=0.867;entryDx=0;entryDy=0;entryPerimeter=0;" edge="1" parent="1" source="F6sMRfChTS6cOjXqgvfc-30" target="F6sMRfChTS6cOjXqgvfc-45">
          <mxGeometry x="0.1506" relative="1" as="geometry">
            <Array as="points">
              <mxPoint x="140" y="691" />
              <mxPoint x="140" y="736" />
            </Array>
            <mxPoint as="offset" />
          </mxGeometry>
        </mxCell>
        <mxCell id="F6sMRfChTS6cOjXqgvfc-51" value="" style="edgeStyle=orthogonalEdgeStyle;rounded=0;orthogonalLoop=1;jettySize=auto;html=1;" edge="1" parent="1" source="F6sMRfChTS6cOjXqgvfc-47" target="F6sMRfChTS6cOjXqgvfc-50">
          <mxGeometry relative="1" as="geometry" />
        </mxCell>
        <mxCell id="F6sMRfChTS6cOjXqgvfc-52" value="o" style="edgeLabel;html=1;align=center;verticalAlign=middle;resizable=0;points=[];" vertex="1" connectable="0" parent="F6sMRfChTS6cOjXqgvfc-51">
          <mxGeometry x="-0.1" relative="1" as="geometry">
            <mxPoint as="offset" />
          </mxGeometry>
        </mxCell>
        <mxCell id="F6sMRfChTS6cOjXqgvfc-47" value="" style="ellipse;html=1;shape=startState;fillColor=#000000;strokeColor=#ff0000;rounded=1;shadow=0;comic=0;labelBackgroundColor=none;fontFamily=Verdana;fontSize=12;fontColor=#000000;align=center;direction=south;" vertex="1" parent="1">
          <mxGeometry x="230" y="725" width="30" height="30" as="geometry" />
        </mxCell>
        <mxCell id="F6sMRfChTS6cOjXqgvfc-54" value="" style="edgeStyle=orthogonalEdgeStyle;rounded=0;orthogonalLoop=1;jettySize=auto;html=1;" edge="1" parent="1" source="F6sMRfChTS6cOjXqgvfc-50" target="F6sMRfChTS6cOjXqgvfc-53">
          <mxGeometry relative="1" as="geometry" />
        </mxCell>
        <mxCell id="F6sMRfChTS6cOjXqgvfc-55" value="a" style="edgeLabel;html=1;align=center;verticalAlign=middle;resizable=0;points=[];" vertex="1" connectable="0" parent="F6sMRfChTS6cOjXqgvfc-54">
          <mxGeometry x="-0.0643" relative="1" as="geometry">
            <mxPoint x="-6" as="offset" />
          </mxGeometry>
        </mxCell>
        <mxCell id="F6sMRfChTS6cOjXqgvfc-50" value="" style="ellipse;html=1;shape=startState;fillColor=#000000;strokeColor=#ff0000;rounded=1;shadow=0;comic=0;labelBackgroundColor=none;fontFamily=Verdana;fontSize=12;fontColor=#000000;align=center;direction=south;" vertex="1" parent="1">
          <mxGeometry x="300" y="725" width="30" height="30" as="geometry" />
        </mxCell>
        <mxCell id="F6sMRfChTS6cOjXqgvfc-57" value="" style="edgeStyle=orthogonalEdgeStyle;rounded=0;orthogonalLoop=1;jettySize=auto;html=1;" edge="1" parent="1" source="F6sMRfChTS6cOjXqgvfc-53" target="F6sMRfChTS6cOjXqgvfc-56">
          <mxGeometry relative="1" as="geometry" />
        </mxCell>
        <mxCell id="F6sMRfChTS6cOjXqgvfc-58" value="t" style="edgeLabel;html=1;align=center;verticalAlign=middle;resizable=0;points=[];" vertex="1" connectable="0" parent="F6sMRfChTS6cOjXqgvfc-57">
          <mxGeometry x="-0.0571" relative="1" as="geometry">
            <mxPoint x="-6" as="offset" />
          </mxGeometry>
        </mxCell>
        <mxCell id="F6sMRfChTS6cOjXqgvfc-53" value="" style="ellipse;html=1;shape=startState;fillColor=#000000;strokeColor=#ff0000;rounded=1;shadow=0;comic=0;labelBackgroundColor=none;fontFamily=Verdana;fontSize=12;fontColor=#000000;align=center;direction=south;" vertex="1" parent="1">
          <mxGeometry x="360" y="725" width="30" height="30" as="geometry" />
        </mxCell>
        <mxCell id="F6sMRfChTS6cOjXqgvfc-77" style="edgeStyle=orthogonalEdgeStyle;rounded=0;orthogonalLoop=1;jettySize=auto;html=1;entryX=0;entryY=0.5;entryDx=0;entryDy=0;" edge="1" parent="1" source="F6sMRfChTS6cOjXqgvfc-56" target="F6sMRfChTS6cOjXqgvfc-75">
          <mxGeometry relative="1" as="geometry" />
        </mxCell>
        <mxCell id="F6sMRfChTS6cOjXqgvfc-78" value="&quot; &quot;" style="edgeLabel;html=1;align=center;verticalAlign=middle;resizable=0;points=[];" vertex="1" connectable="0" parent="F6sMRfChTS6cOjXqgvfc-77">
          <mxGeometry x="-0.1524" relative="1" as="geometry">
            <mxPoint as="offset" />
          </mxGeometry>
        </mxCell>
        <mxCell id="F6sMRfChTS6cOjXqgvfc-56" value="" style="ellipse;html=1;shape=startState;fillColor=#000000;strokeColor=#ff0000;rounded=1;shadow=0;comic=0;labelBackgroundColor=none;fontFamily=Verdana;fontSize=12;fontColor=#000000;align=center;direction=south;" vertex="1" parent="1">
          <mxGeometry x="420" y="725" width="30" height="30" as="geometry" />
        </mxCell>
        <mxCell id="F6sMRfChTS6cOjXqgvfc-65" style="edgeStyle=orthogonalEdgeStyle;rounded=0;orthogonalLoop=1;jettySize=auto;html=1;" edge="1" parent="1" source="F6sMRfChTS6cOjXqgvfc-59" target="F6sMRfChTS6cOjXqgvfc-64">
          <mxGeometry relative="1" as="geometry" />
        </mxCell>
        <mxCell id="F6sMRfChTS6cOjXqgvfc-66" value="h" style="edgeLabel;html=1;align=center;verticalAlign=middle;resizable=0;points=[];" vertex="1" connectable="0" parent="F6sMRfChTS6cOjXqgvfc-65">
          <mxGeometry x="-0.2071" y="-2" relative="1" as="geometry">
            <mxPoint as="offset" />
          </mxGeometry>
        </mxCell>
        <mxCell id="F6sMRfChTS6cOjXqgvfc-59" value="" style="ellipse;html=1;shape=startState;fillColor=#000000;strokeColor=#ff0000;rounded=1;shadow=0;comic=0;labelBackgroundColor=none;fontFamily=Verdana;fontSize=12;fontColor=#000000;align=center;direction=south;" vertex="1" parent="1">
          <mxGeometry x="150" y="775" width="30" height="30" as="geometry" />
        </mxCell>
        <mxCell id="F6sMRfChTS6cOjXqgvfc-69" style="edgeStyle=orthogonalEdgeStyle;rounded=0;orthogonalLoop=1;jettySize=auto;html=1;" edge="1" parent="1" source="F6sMRfChTS6cOjXqgvfc-64" target="F6sMRfChTS6cOjXqgvfc-68">
          <mxGeometry relative="1" as="geometry" />
        </mxCell>
        <mxCell id="F6sMRfChTS6cOjXqgvfc-70" value="a" style="edgeLabel;html=1;align=center;verticalAlign=middle;resizable=0;points=[];" vertex="1" connectable="0" parent="F6sMRfChTS6cOjXqgvfc-69">
          <mxGeometry x="0.0429" y="1" relative="1" as="geometry">
            <mxPoint as="offset" />
          </mxGeometry>
        </mxCell>
        <mxCell id="F6sMRfChTS6cOjXqgvfc-64" value="" style="ellipse;html=1;shape=startState;fillColor=#000000;strokeColor=#ff0000;rounded=1;shadow=0;comic=0;labelBackgroundColor=none;fontFamily=Verdana;fontSize=12;fontColor=#000000;align=center;direction=south;" vertex="1" parent="1">
          <mxGeometry x="230" y="775" width="30" height="30" as="geometry" />
        </mxCell>
        <mxCell id="F6sMRfChTS6cOjXqgvfc-72" value="r" style="edgeStyle=orthogonalEdgeStyle;rounded=0;orthogonalLoop=1;jettySize=auto;html=1;" edge="1" parent="1" source="F6sMRfChTS6cOjXqgvfc-68" target="F6sMRfChTS6cOjXqgvfc-71">
          <mxGeometry x="0.2" relative="1" as="geometry">
            <mxPoint as="offset" />
          </mxGeometry>
        </mxCell>
        <mxCell id="F6sMRfChTS6cOjXqgvfc-68" value="" style="ellipse;html=1;shape=startState;fillColor=#000000;strokeColor=#ff0000;rounded=1;shadow=0;comic=0;labelBackgroundColor=none;fontFamily=Verdana;fontSize=12;fontColor=#000000;align=center;direction=south;" vertex="1" parent="1">
          <mxGeometry x="300" y="775" width="30" height="30" as="geometry" />
        </mxCell>
        <mxCell id="F6sMRfChTS6cOjXqgvfc-71" value="" style="ellipse;html=1;shape=startState;fillColor=#000000;strokeColor=#ff0000;rounded=1;shadow=0;comic=0;labelBackgroundColor=none;fontFamily=Verdana;fontSize=12;fontColor=#000000;align=center;direction=south;" vertex="1" parent="1">
          <mxGeometry x="360" y="775" width="30" height="30" as="geometry" />
        </mxCell>
        <mxCell id="F6sMRfChTS6cOjXqgvfc-75" value="type*" style="ellipse;whiteSpace=wrap;html=1;fontFamily=Verdana;fillColor=#FF0000;strokeColor=#ff0000;fontColor=#000000;rounded=1;shadow=0;comic=0;labelBackgroundColor=none;" vertex="1" parent="1">
          <mxGeometry x="490" y="720" width="42" height="40" as="geometry" />
        </mxCell>
        <mxCell id="F6sMRfChTS6cOjXqgvfc-79" value="&quot; &quot;" style="edgeStyle=orthogonalEdgeStyle;rounded=0;orthogonalLoop=1;jettySize=auto;html=1;entryX=0.145;entryY=0.881;entryDx=0;entryDy=0;entryPerimeter=0;" edge="1" parent="1" source="F6sMRfChTS6cOjXqgvfc-71" target="F6sMRfChTS6cOjXqgvfc-75">
          <mxGeometry relative="1" as="geometry">
            <Array as="points">
              <mxPoint x="500" y="790" />
              <mxPoint x="500" y="770" />
            </Array>
          </mxGeometry>
        </mxCell>
        <mxCell id="F6sMRfChTS6cOjXqgvfc-87" value="" style="edgeStyle=orthogonalEdgeStyle;rounded=0;orthogonalLoop=1;jettySize=auto;html=1;" edge="1" parent="1" source="F6sMRfChTS6cOjXqgvfc-81" target="F6sMRfChTS6cOjXqgvfc-84">
          <mxGeometry relative="1" as="geometry" />
        </mxCell>
        <mxCell id="F6sMRfChTS6cOjXqgvfc-88" value=")" style="edgeLabel;html=1;align=center;verticalAlign=middle;resizable=0;points=[];" vertex="1" connectable="0" parent="F6sMRfChTS6cOjXqgvfc-87">
          <mxGeometry x="-0.6533" relative="1" as="geometry">
            <mxPoint as="offset" />
          </mxGeometry>
        </mxCell>
        <mxCell id="F6sMRfChTS6cOjXqgvfc-81" value="" style="ellipse;html=1;shape=startState;fillColor=#000000;strokeColor=#ff0000;rounded=1;shadow=0;comic=0;labelBackgroundColor=none;fontFamily=Verdana;fontSize=12;fontColor=#000000;align=center;direction=south;" vertex="1" parent="1">
          <mxGeometry x="80" y="510" width="30" height="30" as="geometry" />
        </mxCell>
        <mxCell id="F6sMRfChTS6cOjXqgvfc-92" style="edgeStyle=orthogonalEdgeStyle;rounded=0;orthogonalLoop=1;jettySize=auto;html=1;exitX=0.5;exitY=0;exitDx=0;exitDy=0;entryX=0;entryY=0.5;entryDx=0;entryDy=0;" edge="1" parent="1" source="F6sMRfChTS6cOjXqgvfc-84" target="F6sMRfChTS6cOjXqgvfc-89">
          <mxGeometry relative="1" as="geometry" />
        </mxCell>
        <mxCell id="F6sMRfChTS6cOjXqgvfc-84" value="" style="ellipse;html=1;shape=startState;fillColor=#000000;strokeColor=#ff0000;rounded=1;shadow=0;comic=0;labelBackgroundColor=none;fontFamily=Verdana;fontSize=12;fontColor=#000000;align=center;direction=south;" vertex="1" parent="1">
          <mxGeometry x="140" y="510" width="30" height="30" as="geometry" />
        </mxCell>
        <mxCell id="F6sMRfChTS6cOjXqgvfc-89" value="end_parem" style="ellipse;whiteSpace=wrap;html=1;fontFamily=Verdana;fillColor=#FF0000;strokeColor=#ff0000;fontColor=#000000;rounded=1;shadow=0;comic=0;labelBackgroundColor=none;" vertex="1" parent="1">
          <mxGeometry x="190" y="510" width="80" height="30" as="geometry" />
        </mxCell>
        <mxCell id="F6sMRfChTS6cOjXqgvfc-93" value="" style="edgeStyle=orthogonalEdgeStyle;rounded=0;orthogonalLoop=1;jettySize=auto;html=1;" edge="1" source="F6sMRfChTS6cOjXqgvfc-95" target="F6sMRfChTS6cOjXqgvfc-97" parent="1">
          <mxGeometry relative="1" as="geometry" />
        </mxCell>
        <mxCell id="F6sMRfChTS6cOjXqgvfc-94" value="(" style="edgeLabel;html=1;align=center;verticalAlign=middle;resizable=0;points=[];" vertex="1" connectable="0" parent="F6sMRfChTS6cOjXqgvfc-93">
          <mxGeometry x="-0.6533" relative="1" as="geometry">
            <mxPoint as="offset" />
          </mxGeometry>
        </mxCell>
        <mxCell id="F6sMRfChTS6cOjXqgvfc-95" value="" style="ellipse;html=1;shape=startState;fillColor=#000000;strokeColor=#ff0000;rounded=1;shadow=0;comic=0;labelBackgroundColor=none;fontFamily=Verdana;fontSize=12;fontColor=#000000;align=center;direction=south;" vertex="1" parent="1">
          <mxGeometry x="80" y="470" width="30" height="30" as="geometry" />
        </mxCell>
        <mxCell id="F6sMRfChTS6cOjXqgvfc-96" style="edgeStyle=orthogonalEdgeStyle;rounded=0;orthogonalLoop=1;jettySize=auto;html=1;exitX=0.5;exitY=0;exitDx=0;exitDy=0;entryX=0;entryY=0.5;entryDx=0;entryDy=0;" edge="1" source="F6sMRfChTS6cOjXqgvfc-97" target="F6sMRfChTS6cOjXqgvfc-98" parent="1">
          <mxGeometry relative="1" as="geometry" />
        </mxCell>
        <mxCell id="F6sMRfChTS6cOjXqgvfc-97" value="" style="ellipse;html=1;shape=startState;fillColor=#000000;strokeColor=#ff0000;rounded=1;shadow=0;comic=0;labelBackgroundColor=none;fontFamily=Verdana;fontSize=12;fontColor=#000000;align=center;direction=south;" vertex="1" parent="1">
          <mxGeometry x="140" y="470" width="30" height="30" as="geometry" />
        </mxCell>
        <mxCell id="F6sMRfChTS6cOjXqgvfc-98" value="start_parem" style="ellipse;whiteSpace=wrap;html=1;fontFamily=Verdana;fillColor=#FF0000;strokeColor=#ff0000;fontColor=#000000;rounded=1;shadow=0;comic=0;labelBackgroundColor=none;" vertex="1" parent="1">
          <mxGeometry x="190" y="470" width="80" height="30" as="geometry" />
        </mxCell>
        <mxCell id="F6sMRfChTS6cOjXqgvfc-110" value="" style="edgeStyle=orthogonalEdgeStyle;rounded=0;orthogonalLoop=1;jettySize=auto;html=1;entryX=0;entryY=0.5;entryDx=0;entryDy=0;" edge="1" parent="1" source="F6sMRfChTS6cOjXqgvfc-101" target="F6sMRfChTS6cOjXqgvfc-109">
          <mxGeometry relative="1" as="geometry">
            <Array as="points">
              <mxPoint x="305" y="515" />
              <mxPoint x="315" y="515" />
            </Array>
          </mxGeometry>
        </mxCell>
        <mxCell id="F6sMRfChTS6cOjXqgvfc-101" value="" style="ellipse;html=1;shape=startState;fillColor=#000000;strokeColor=#ff0000;rounded=1;shadow=0;comic=0;labelBackgroundColor=none;fontFamily=Verdana;fontSize=12;fontColor=#000000;align=center;direction=south;" vertex="1" parent="1">
          <mxGeometry x="290" y="450" width="30" height="30" as="geometry" />
        </mxCell>
        <mxCell id="F6sMRfChTS6cOjXqgvfc-116" value="" style="edgeStyle=orthogonalEdgeStyle;rounded=0;orthogonalLoop=1;jettySize=auto;html=1;" edge="1" parent="1" source="F6sMRfChTS6cOjXqgvfc-109" target="F6sMRfChTS6cOjXqgvfc-115">
          <mxGeometry relative="1" as="geometry" />
        </mxCell>
        <mxCell id="F6sMRfChTS6cOjXqgvfc-109" value="" style="ellipse;html=1;shape=startState;fillColor=#000000;strokeColor=#ff0000;rounded=1;shadow=0;comic=0;labelBackgroundColor=none;fontFamily=Verdana;fontSize=12;fontColor=#000000;align=center;direction=south;" vertex="1" parent="1">
          <mxGeometry x="300" y="525" width="30" height="30" as="geometry" />
        </mxCell>
        <mxCell id="F6sMRfChTS6cOjXqgvfc-121" style="edgeStyle=orthogonalEdgeStyle;rounded=0;orthogonalLoop=1;jettySize=auto;html=1;exitX=0;exitY=0.5;exitDx=0;exitDy=0;entryX=0.5;entryY=1;entryDx=0;entryDy=0;" edge="1" parent="1" source="F6sMRfChTS6cOjXqgvfc-115" target="F6sMRfChTS6cOjXqgvfc-117">
          <mxGeometry relative="1" as="geometry" />
        </mxCell>
        <mxCell id="F6sMRfChTS6cOjXqgvfc-128" style="edgeStyle=orthogonalEdgeStyle;rounded=0;orthogonalLoop=1;jettySize=auto;html=1;" edge="1" parent="1" source="F6sMRfChTS6cOjXqgvfc-115" target="F6sMRfChTS6cOjXqgvfc-118">
          <mxGeometry relative="1" as="geometry" />
        </mxCell>
        <mxCell id="F6sMRfChTS6cOjXqgvfc-130" style="edgeStyle=orthogonalEdgeStyle;rounded=0;orthogonalLoop=1;jettySize=auto;html=1;entryX=0.5;entryY=1;entryDx=0;entryDy=0;" edge="1" parent="1" source="F6sMRfChTS6cOjXqgvfc-115" target="F6sMRfChTS6cOjXqgvfc-119">
          <mxGeometry relative="1" as="geometry">
            <Array as="points">
              <mxPoint x="356" y="580" />
            </Array>
          </mxGeometry>
        </mxCell>
        <mxCell id="F6sMRfChTS6cOjXqgvfc-115" value="" style="ellipse;html=1;shape=startState;fillColor=#000000;strokeColor=#ff0000;rounded=1;shadow=0;comic=0;labelBackgroundColor=none;fontFamily=Verdana;fontSize=12;fontColor=#000000;align=center;direction=south;" vertex="1" parent="1">
          <mxGeometry x="341" y="525" width="30" height="30" as="geometry" />
        </mxCell>
        <mxCell id="F6sMRfChTS6cOjXqgvfc-135" value="&quot; &quot;" style="edgeStyle=orthogonalEdgeStyle;rounded=0;orthogonalLoop=1;jettySize=auto;html=1;" edge="1" parent="1" source="F6sMRfChTS6cOjXqgvfc-117" target="F6sMRfChTS6cOjXqgvfc-131">
          <mxGeometry relative="1" as="geometry" />
        </mxCell>
        <mxCell id="F6sMRfChTS6cOjXqgvfc-117" value="" style="ellipse;html=1;shape=startState;fillColor=#000000;strokeColor=#ff0000;rounded=1;shadow=0;comic=0;labelBackgroundColor=none;fontFamily=Verdana;fontSize=12;fontColor=#000000;align=center;direction=south;" vertex="1" parent="1">
          <mxGeometry x="391" y="485" width="30" height="30" as="geometry" />
        </mxCell>
        <mxCell id="F6sMRfChTS6cOjXqgvfc-136" style="edgeStyle=orthogonalEdgeStyle;rounded=0;orthogonalLoop=1;jettySize=auto;html=1;" edge="1" parent="1" source="F6sMRfChTS6cOjXqgvfc-118" target="F6sMRfChTS6cOjXqgvfc-132">
          <mxGeometry relative="1" as="geometry" />
        </mxCell>
        <mxCell id="F6sMRfChTS6cOjXqgvfc-137" value="\n" style="edgeLabel;html=1;align=center;verticalAlign=middle;resizable=0;points=[];" vertex="1" connectable="0" parent="F6sMRfChTS6cOjXqgvfc-136">
          <mxGeometry x="0.4496" y="1" relative="1" as="geometry">
            <mxPoint as="offset" />
          </mxGeometry>
        </mxCell>
        <mxCell id="F6sMRfChTS6cOjXqgvfc-118" value="" style="ellipse;html=1;shape=startState;fillColor=#000000;strokeColor=#ff0000;rounded=1;shadow=0;comic=0;labelBackgroundColor=none;fontFamily=Verdana;fontSize=12;fontColor=#000000;align=center;direction=south;" vertex="1" parent="1">
          <mxGeometry x="391" y="525" width="30" height="30" as="geometry" />
        </mxCell>
        <mxCell id="F6sMRfChTS6cOjXqgvfc-138" style="edgeStyle=orthogonalEdgeStyle;rounded=0;orthogonalLoop=1;jettySize=auto;html=1;" edge="1" parent="1" source="F6sMRfChTS6cOjXqgvfc-119" target="F6sMRfChTS6cOjXqgvfc-133">
          <mxGeometry relative="1" as="geometry" />
        </mxCell>
        <mxCell id="F6sMRfChTS6cOjXqgvfc-139" value="\t" style="edgeLabel;html=1;align=center;verticalAlign=middle;resizable=0;points=[];" vertex="1" connectable="0" parent="F6sMRfChTS6cOjXqgvfc-138">
          <mxGeometry x="0.4297" relative="1" as="geometry">
            <mxPoint as="offset" />
          </mxGeometry>
        </mxCell>
        <mxCell id="F6sMRfChTS6cOjXqgvfc-119" value="" style="ellipse;html=1;shape=startState;fillColor=#000000;strokeColor=#ff0000;rounded=1;shadow=0;comic=0;labelBackgroundColor=none;fontFamily=Verdana;fontSize=12;fontColor=#000000;align=center;direction=south;" vertex="1" parent="1">
          <mxGeometry x="391" y="565" width="30" height="30" as="geometry" />
        </mxCell>
        <mxCell id="F6sMRfChTS6cOjXqgvfc-141" style="edgeStyle=orthogonalEdgeStyle;rounded=0;orthogonalLoop=1;jettySize=auto;html=1;" edge="1" parent="1" source="F6sMRfChTS6cOjXqgvfc-131" target="F6sMRfChTS6cOjXqgvfc-140">
          <mxGeometry relative="1" as="geometry" />
        </mxCell>
        <mxCell id="F6sMRfChTS6cOjXqgvfc-131" value="" style="ellipse;html=1;shape=startState;fillColor=#000000;strokeColor=#ff0000;rounded=1;shadow=0;comic=0;labelBackgroundColor=none;fontFamily=Verdana;fontSize=12;fontColor=#000000;align=center;direction=south;" vertex="1" parent="1">
          <mxGeometry x="451" y="485" width="30" height="30" as="geometry" />
        </mxCell>
        <mxCell id="F6sMRfChTS6cOjXqgvfc-142" style="edgeStyle=orthogonalEdgeStyle;rounded=0;orthogonalLoop=1;jettySize=auto;html=1;exitX=0.5;exitY=0;exitDx=0;exitDy=0;" edge="1" parent="1" source="F6sMRfChTS6cOjXqgvfc-132" target="F6sMRfChTS6cOjXqgvfc-140">
          <mxGeometry relative="1" as="geometry" />
        </mxCell>
        <mxCell id="F6sMRfChTS6cOjXqgvfc-132" value="" style="ellipse;html=1;shape=startState;fillColor=#000000;strokeColor=#ff0000;rounded=1;shadow=0;comic=0;labelBackgroundColor=none;fontFamily=Verdana;fontSize=12;fontColor=#000000;align=center;direction=south;" vertex="1" parent="1">
          <mxGeometry x="451" y="525" width="30" height="30" as="geometry" />
        </mxCell>
        <mxCell id="F6sMRfChTS6cOjXqgvfc-143" style="edgeStyle=orthogonalEdgeStyle;rounded=0;orthogonalLoop=1;jettySize=auto;html=1;" edge="1" parent="1" source="F6sMRfChTS6cOjXqgvfc-133" target="F6sMRfChTS6cOjXqgvfc-140">
          <mxGeometry relative="1" as="geometry" />
        </mxCell>
        <mxCell id="F6sMRfChTS6cOjXqgvfc-133" value="" style="ellipse;html=1;shape=startState;fillColor=#000000;strokeColor=#ff0000;rounded=1;shadow=0;comic=0;labelBackgroundColor=none;fontFamily=Verdana;fontSize=12;fontColor=#000000;align=center;direction=south;" vertex="1" parent="1">
          <mxGeometry x="451" y="565" width="30" height="30" as="geometry" />
        </mxCell>
        <mxCell id="F6sMRfChTS6cOjXqgvfc-144" style="edgeStyle=orthogonalEdgeStyle;rounded=0;orthogonalLoop=1;jettySize=auto;html=1;exitX=0.31;exitY=0.305;exitDx=0;exitDy=0;exitPerimeter=0;entryX=0;entryY=0;entryDx=0;entryDy=0;" edge="1" parent="1" source="F6sMRfChTS6cOjXqgvfc-140" target="F6sMRfChTS6cOjXqgvfc-109">
          <mxGeometry relative="1" as="geometry">
            <Array as="points">
              <mxPoint x="556" y="534" />
              <mxPoint x="556" y="485" />
              <mxPoint x="340" y="485" />
              <mxPoint x="340" y="529" />
            </Array>
          </mxGeometry>
        </mxCell>
        <mxCell id="F6sMRfChTS6cOjXqgvfc-146" style="edgeStyle=orthogonalEdgeStyle;rounded=0;orthogonalLoop=1;jettySize=auto;html=1;exitX=0.5;exitY=0;exitDx=0;exitDy=0;" edge="1" parent="1" source="F6sMRfChTS6cOjXqgvfc-140" target="F6sMRfChTS6cOjXqgvfc-145">
          <mxGeometry relative="1" as="geometry" />
        </mxCell>
        <mxCell id="F6sMRfChTS6cOjXqgvfc-140" value="" style="ellipse;html=1;shape=startState;fillColor=#000000;strokeColor=#ff0000;rounded=1;shadow=0;comic=0;labelBackgroundColor=none;fontFamily=Verdana;fontSize=12;fontColor=#000000;align=center;direction=south;" vertex="1" parent="1">
          <mxGeometry x="501" y="525" width="30" height="30" as="geometry" />
        </mxCell>
        <mxCell id="F6sMRfChTS6cOjXqgvfc-145" value="assign" style="ellipse;whiteSpace=wrap;html=1;fontFamily=Verdana;fillColor=#FF0000;strokeColor=#ff0000;fontColor=#000000;rounded=1;shadow=0;comic=0;labelBackgroundColor=none;" vertex="1" parent="1">
          <mxGeometry x="561" y="522.5" width="60" height="35" as="geometry" />
        </mxCell>
        <mxCell id="F6sMRfChTS6cOjXqgvfc-150" style="edgeStyle=orthogonalEdgeStyle;rounded=0;orthogonalLoop=1;jettySize=auto;html=1;" edge="1" parent="1" source="F6sMRfChTS6cOjXqgvfc-147" target="F6sMRfChTS6cOjXqgvfc-149">
          <mxGeometry relative="1" as="geometry" />
        </mxCell>
        <mxCell id="F6sMRfChTS6cOjXqgvfc-151" value="*" style="edgeLabel;html=1;align=center;verticalAlign=middle;resizable=0;points=[];" vertex="1" connectable="0" parent="F6sMRfChTS6cOjXqgvfc-150">
          <mxGeometry x="0.5056" y="1" relative="1" as="geometry">
            <mxPoint as="offset" />
          </mxGeometry>
        </mxCell>
        <mxCell id="F6sMRfChTS6cOjXqgvfc-165" style="edgeStyle=orthogonalEdgeStyle;rounded=0;orthogonalLoop=1;jettySize=auto;html=1;" edge="1" parent="1" source="F6sMRfChTS6cOjXqgvfc-147" target="F6sMRfChTS6cOjXqgvfc-170">
          <mxGeometry relative="1" as="geometry">
            <mxPoint x="80.85786437626905" y="320" as="targetPoint" />
            <Array as="points">
              <mxPoint x="70" y="330" />
              <mxPoint x="140" y="330" />
            </Array>
          </mxGeometry>
        </mxCell>
        <mxCell id="F6sMRfChTS6cOjXqgvfc-167" value="+" style="edgeLabel;html=1;align=center;verticalAlign=middle;resizable=0;points=[];" vertex="1" connectable="0" parent="F6sMRfChTS6cOjXqgvfc-165">
          <mxGeometry x="-0.1504" y="1" relative="1" as="geometry">
            <mxPoint as="offset" />
          </mxGeometry>
        </mxCell>
        <mxCell id="F6sMRfChTS6cOjXqgvfc-168" style="edgeStyle=orthogonalEdgeStyle;rounded=0;orthogonalLoop=1;jettySize=auto;html=1;exitX=0.167;exitY=0.333;exitDx=0;exitDy=0;exitPerimeter=0;" edge="1" parent="1" source="F6sMRfChTS6cOjXqgvfc-147" target="F6sMRfChTS6cOjXqgvfc-170">
          <mxGeometry relative="1" as="geometry">
            <mxPoint x="86" y="429" as="sourcePoint" />
            <mxPoint x="100" y="345" as="targetPoint" />
            <Array as="points">
              <mxPoint x="80" y="345" />
              <mxPoint x="140" y="345" />
            </Array>
          </mxGeometry>
        </mxCell>
        <mxCell id="F6sMRfChTS6cOjXqgvfc-169" value="-" style="edgeLabel;html=1;align=center;verticalAlign=middle;resizable=0;points=[];" vertex="1" connectable="0" parent="F6sMRfChTS6cOjXqgvfc-168">
          <mxGeometry x="-0.3213" y="1" relative="1" as="geometry">
            <mxPoint as="offset" />
          </mxGeometry>
        </mxCell>
        <mxCell id="F6sMRfChTS6cOjXqgvfc-147" value="" style="ellipse;html=1;shape=startState;fillColor=#000000;strokeColor=#ff0000;rounded=1;shadow=0;comic=0;labelBackgroundColor=none;fontFamily=Verdana;fontSize=12;fontColor=#000000;align=center;direction=south;" vertex="1" parent="1">
          <mxGeometry x="60" y="425" width="30" height="30" as="geometry" />
        </mxCell>
        <mxCell id="F6sMRfChTS6cOjXqgvfc-154" style="edgeStyle=orthogonalEdgeStyle;rounded=0;orthogonalLoop=1;jettySize=auto;html=1;" edge="1" parent="1" source="F6sMRfChTS6cOjXqgvfc-149" target="F6sMRfChTS6cOjXqgvfc-152">
          <mxGeometry relative="1" as="geometry" />
        </mxCell>
        <mxCell id="F6sMRfChTS6cOjXqgvfc-155" value="^*" style="edgeLabel;html=1;align=center;verticalAlign=middle;resizable=0;points=[];" vertex="1" connectable="0" parent="F6sMRfChTS6cOjXqgvfc-154">
          <mxGeometry x="0.5667" y="-1" relative="1" as="geometry">
            <mxPoint x="-9" y="-1" as="offset" />
          </mxGeometry>
        </mxCell>
        <mxCell id="F6sMRfChTS6cOjXqgvfc-159" style="edgeStyle=orthogonalEdgeStyle;rounded=0;orthogonalLoop=1;jettySize=auto;html=1;" edge="1" parent="1" source="F6sMRfChTS6cOjXqgvfc-149" target="F6sMRfChTS6cOjXqgvfc-170">
          <mxGeometry relative="1" as="geometry">
            <mxPoint x="125" y="390" as="targetPoint" />
          </mxGeometry>
        </mxCell>
        <mxCell id="F6sMRfChTS6cOjXqgvfc-160" value="*" style="edgeLabel;html=1;align=center;verticalAlign=middle;resizable=0;points=[];" vertex="1" connectable="0" parent="F6sMRfChTS6cOjXqgvfc-159">
          <mxGeometry x="-0.4677" y="1" relative="1" as="geometry">
            <mxPoint as="offset" />
          </mxGeometry>
        </mxCell>
        <mxCell id="F6sMRfChTS6cOjXqgvfc-149" value="" style="ellipse;html=1;shape=startState;fillColor=#000000;strokeColor=#ff0000;rounded=1;shadow=0;comic=0;labelBackgroundColor=none;fontFamily=Verdana;fontSize=12;fontColor=#000000;align=center;direction=south;" vertex="1" parent="1">
          <mxGeometry x="110" y="425" width="30" height="30" as="geometry" />
        </mxCell>
        <mxCell id="F6sMRfChTS6cOjXqgvfc-152" value="" style="ellipse;html=1;shape=startState;fillColor=#000000;strokeColor=#ff0000;rounded=1;shadow=0;comic=0;labelBackgroundColor=none;fontFamily=Verdana;fontSize=12;fontColor=#000000;align=center;direction=south;" vertex="1" parent="1">
          <mxGeometry x="170" y="425" width="30" height="30" as="geometry" />
        </mxCell>
        <mxCell id="F6sMRfChTS6cOjXqgvfc-161" value="ariop*" style="ellipse;whiteSpace=wrap;html=1;fontFamily=Verdana;fillColor=#FF0000;strokeColor=#ff0000;fontColor=#000000;rounded=1;shadow=0;comic=0;labelBackgroundColor=none;" vertex="1" parent="1">
          <mxGeometry x="200" y="390" width="80" height="30" as="geometry" />
        </mxCell>
        <mxCell id="F6sMRfChTS6cOjXqgvfc-162" style="edgeStyle=orthogonalEdgeStyle;rounded=0;orthogonalLoop=1;jettySize=auto;html=1;entryX=0.489;entryY=1.07;entryDx=0;entryDy=0;entryPerimeter=0;" edge="1" parent="1" source="F6sMRfChTS6cOjXqgvfc-152" target="F6sMRfChTS6cOjXqgvfc-161">
          <mxGeometry relative="1" as="geometry">
            <Array as="points">
              <mxPoint x="239" y="440" />
            </Array>
          </mxGeometry>
        </mxCell>
        <mxCell id="F6sMRfChTS6cOjXqgvfc-170" value="ariop" style="ellipse;whiteSpace=wrap;html=1;fontFamily=Verdana;fillColor=#FF0000;strokeColor=#ff0000;fontColor=#000000;rounded=1;shadow=0;comic=0;labelBackgroundColor=none;" vertex="1" parent="1">
          <mxGeometry x="100" y="350" width="80" height="30" as="geometry" />
        </mxCell>
        <mxCell id="F6sMRfChTS6cOjXqgvfc-171" style="edgeStyle=orthogonalEdgeStyle;rounded=0;orthogonalLoop=1;jettySize=auto;html=1;exitX=0;exitY=0;exitDx=0;exitDy=0;entryX=0.128;entryY=0.88;entryDx=0;entryDy=0;entryPerimeter=0;" edge="1" parent="1" source="F6sMRfChTS6cOjXqgvfc-147" target="F6sMRfChTS6cOjXqgvfc-170">
          <mxGeometry relative="1" as="geometry" />
        </mxCell>
        <mxCell id="F6sMRfChTS6cOjXqgvfc-172" value="/" style="edgeLabel;html=1;align=center;verticalAlign=middle;resizable=0;points=[];" vertex="1" connectable="0" parent="F6sMRfChTS6cOjXqgvfc-171">
          <mxGeometry x="0.33" relative="1" as="geometry">
            <mxPoint as="offset" />
          </mxGeometry>
        </mxCell>
      </root>
    </mxGraphModel>
  </diagram>
</mxfile>
